# Blender v2.79 (sub 0) OBJ File: 'player.blend'
# www.blender.org
o Cube.001
v 0.175000 0.225000 -0.050000
v 0.175000 0.000000 -0.050000
v 0.175000 0.225000 0.100000
v 0.175000 -0.000000 0.100000
v 0.025000 0.225000 -0.050000
v 0.025000 0.000000 -0.050000
v 0.025000 0.225000 0.100000
v 0.025000 -0.000000 0.100000
v -0.025000 0.225000 -0.050000
v -0.025000 0.000000 -0.050000
v -0.025000 0.225000 0.100000
v -0.025000 -0.000000 0.100000
v -0.175000 0.225000 -0.050000
v -0.175000 0.000000 -0.050000
v -0.175000 0.225000 0.100000
v -0.175000 -0.000000 0.100000
v -0.030000 0.035015 0.054939
v -0.030000 0.010867 0.048468
v -0.030000 0.009133 0.151532
v -0.030000 -0.015015 0.145061
v -0.170000 0.035015 0.054939
v -0.170000 0.010867 0.048468
v -0.170000 0.009133 0.151532
v -0.170000 -0.015015 0.145061
v 0.170000 0.035015 0.054939
v 0.170000 0.009133 0.151532
v 0.170000 -0.015015 0.145061
v 0.030000 0.035015 0.054939
v 0.030000 -0.015015 0.149126
v 0.040000 0.212128 0.088624
v 0.040000 0.433710 0.049553
v 0.040000 0.191290 -0.029553
v 0.040000 0.412872 -0.068624
v 0.160000 0.212128 0.088624
v 0.160000 0.433710 0.049553
v 0.160000 0.191290 -0.029553
v 0.160000 0.412872 -0.068624
v -0.040000 0.412872 -0.068624
v -0.040000 0.191290 -0.029553
v -0.040000 0.433710 0.049553
v -0.040000 0.212128 0.088624
v -0.160000 0.412872 -0.068624
v -0.160000 0.191290 -0.029553
v -0.160000 0.433710 0.049553
v -0.160000 0.212128 0.088624
v 0.160000 0.775000 -0.075000
v 0.160000 0.400000 -0.075000
v 0.160000 0.775000 0.075000
v 0.160000 0.400000 0.075000
v -0.160000 0.775000 -0.075000
v -0.160000 0.400000 -0.075000
v -0.160000 0.775000 0.075000
v -0.160000 0.400000 0.075000
v 0.095000 0.975000 -0.090000
v 0.095000 0.775000 -0.090000
v 0.095000 0.975000 0.100000
v 0.095000 0.775000 0.100000
v -0.095000 0.975000 -0.090000
v -0.095000 0.775000 -0.090000
v -0.095000 0.975000 0.100000
v -0.095000 0.775000 0.100000
v 0.087782 0.701057 0.090000
v 0.073890 0.779842 0.090000
v 0.087781 0.701057 -0.090000
v 0.073890 0.779842 -0.090000
v 0.196110 0.720158 0.090000
v 0.182219 0.798943 0.090000
v 0.196110 0.720158 -0.090000
v 0.182219 0.798943 -0.090000
v -0.073890 0.779842 -0.090000
v -0.087781 0.701057 -0.090000
v -0.073890 0.779842 0.090000
v -0.087782 0.701057 0.090000
v -0.182219 0.798943 -0.090000
v -0.196110 0.720158 -0.090000
v -0.182219 0.798943 0.090000
v -0.196110 0.720158 0.090000
v -0.063222 0.729360 -0.060000
v -0.140867 0.439582 -0.060000
v -0.063222 0.729360 0.060000
v -0.140867 0.439582 0.060000
v -0.179133 0.760418 -0.060000
v -0.256778 0.470640 -0.060000
v -0.179133 0.760418 0.060000
v -0.256778 0.470640 0.060000
v 0.063222 0.729360 0.060000
v 0.140867 0.439582 0.060000
v 0.063222 0.729360 -0.060000
v 0.140867 0.439582 -0.060000
v 0.179133 0.760418 0.060000
v 0.256778 0.470640 0.060000
v 0.179133 0.760418 -0.060000
v 0.256778 0.470640 -0.060000
v 0.170000 0.010867 0.048468
v 0.030000 0.010867 0.048468
v 0.030000 0.009133 0.151532
vt 0.562500 0.562500
vt 0.656250 0.421875
vt 0.562500 0.421875
vt 0.750000 0.562500
vt 0.843750 0.421875
vt 0.750000 0.421875
vt 0.750000 0.656250
vt 0.843750 0.562500
vt 0.750000 0.562500
vt 0.656250 0.562500
vt 0.843750 0.562500
vt 0.937500 0.421875
vt 0.750000 0.656250
vt 0.656250 0.656250
vt 0.843750 0.562500
vt 0.750000 0.421875
vt 0.843750 0.421875
vt 0.656250 0.562500
vt 0.562500 0.421875
vt 0.656250 0.421875
vt 0.843750 0.656250
vt 0.750000 0.562500
vt 0.843750 0.562500
vt 0.750000 0.562500
vt 0.937500 0.562500
vt 0.937500 0.421875
vt 0.656250 0.656250
vt 0.750000 0.656250
vt 0.500000 0.921875
vt 0.593750 0.906250
vt 0.500000 0.906250
vt 0.500000 0.906250
vt 0.593750 0.921875
vt 0.593750 0.906250
vt 0.375000 0.921875
vt 0.500000 1.000000
vt 0.500000 0.921875
vt 0.375000 0.921875
vt 0.375000 0.906250
vt 0.500000 0.906250
vt 0.500000 1.000000
vt 0.375000 1.000000
vt 0.593750 0.921875
vt 0.500000 0.906250
vt 0.593750 0.906250
vt 0.593750 0.921875
vt 0.500000 0.906250
vt 0.593750 0.906250
vt 0.375000 0.921875
vt 0.500000 1.000000
vt 0.375000 1.000000
vt 0.500000 0.921875
vt 0.375000 0.906250
vt 0.375000 0.906250
vt 0.500000 0.921875
vt 0.375000 1.000000
vt 0.500000 1.000000
vt 0.687500 0.796875
vt 0.750000 0.671875
vt 0.687500 0.671875
vt 0.500000 0.796875
vt 0.562500 0.671875
vt 0.500000 0.671875
vt 0.625000 0.859375
vt 0.687500 0.796875
vt 0.687500 0.859375
vt 0.625000 0.796875
vt 0.625000 0.671875
vt 0.625000 0.859375
vt 0.562500 0.796875
vt 0.562500 0.859375
vt 0.687500 0.796875
vt 0.625000 0.671875
vt 0.687500 0.671875
vt 0.562500 0.796875
vt 0.500000 0.671875
vt 0.562500 0.671875
vt 0.687500 0.859375
vt 0.625000 0.796875
vt 0.687500 0.796875
vt 0.625000 0.796875
vt 0.750000 0.796875
vt 0.750000 0.671875
vt 0.562500 0.859375
vt 0.625000 0.859375
vt 0.375000 0.640625
vt 0.281250 0.421875
vt 0.375000 0.421875
vt 0.093750 0.640625
vt 0.000000 0.421875
vt 0.093750 0.421875
vt 0.281250 0.734375
vt 0.468750 0.640625
vt 0.468750 0.734375
vt 0.281250 0.640625
vt 0.562500 0.640625
vt 0.562500 0.421875
vt 0.093750 0.734375
vt 0.281250 0.734375
vt 0.375000 0.875000
vt 0.250000 0.734375
vt 0.375000 0.734375
vt 0.125000 0.875000
vt 0.000000 0.734375
vt 0.125000 0.734375
vt 0.375000 1.000000
vt 0.250000 0.875000
vt 0.375000 0.875000
vt 0.250000 0.875000
vt 0.500000 0.875000
vt 0.500000 0.734375
vt 0.125000 1.000000
vt 0.250000 1.000000
vt 0.750000 0.906250
vt 0.812500 0.859375
vt 0.750000 0.859375
vt 0.500000 0.906250
vt 0.593750 0.859375
vt 0.500000 0.859375
vt 0.718750 1.000000
vt 0.656250 0.906250
vt 0.656250 1.000000
vt 0.656250 0.906250
vt 0.656250 0.859375
vt 0.656250 1.000000
vt 0.593750 0.906250
vt 0.593750 1.000000
vt 0.593750 1.000000
vt 0.656250 0.906250
vt 0.656250 1.000000
vt 0.812500 0.859375
vt 0.750000 0.906250
vt 0.750000 0.859375
vt 0.718750 0.906250
vt 0.656250 1.000000
vt 0.656250 0.906250
vt 0.656250 0.859375
vt 0.593750 0.859375
vt 0.593750 0.906250
vt 0.500000 0.859375
vt 0.937500 0.843750
vt 0.875000 0.671875
vt 0.937500 0.671875
vt 0.812500 0.843750
vt 0.750000 0.671875
vt 0.812500 0.671875
vt 0.875000 0.906250
vt 0.937500 0.843750
vt 0.937500 0.906250
vt 1.000000 0.843750
vt 1.000000 0.671875
vt 0.812500 0.906250
vt 0.875000 0.843750
vt 0.875000 0.906250
vt 0.875000 0.843750
vt 0.937500 0.671875
vt 0.875000 0.671875
vt 0.750000 0.671875
vt 0.812500 0.843750
vt 0.812500 0.671875
vt 0.937500 0.843750
vt 0.875000 0.906250
vt 0.937500 0.906250
vt 1.000000 0.843750
vt 1.000000 0.671875
vt 0.875000 0.906250
vt 0.843750 0.656250
vt 0.937500 0.562500
vt 0.562500 0.562500
vt 0.750000 0.656250
vt 0.593750 0.921875
vt 0.500000 0.921875
vt 0.375000 1.000000
vt 0.375000 0.906250
vt 0.500000 0.921875
vt 0.375000 0.921875
vt 0.500000 0.906250
vt 0.750000 0.796875
vt 0.625000 0.796875
vt 0.500000 0.796875
vt 0.625000 0.859375
vt 0.000000 0.640625
vt 0.281250 0.640625
vt 0.000000 0.875000
vt 0.250000 1.000000
vt 0.812500 0.906250
vt 0.718750 0.906250
vt 0.812500 0.906250
vt 0.718750 1.000000
vt 0.500000 0.906250
vt 0.750000 0.843750
vt 0.875000 0.843750
vt 0.937500 0.843750
vt 0.750000 0.843750
vt 0.875000 0.843750
vt 0.812500 0.906250
vn 1.0000 0.0000 0.0000
vn -1.0000 0.0000 0.0000
vn 0.0000 -1.0000 -0.0000
vn 0.0000 -0.0000 1.0000
vn 0.0000 0.0000 -1.0000
vn 0.0000 1.0000 0.0000
vn 0.0000 -0.9659 -0.2588
vn 0.0000 -0.2588 0.9659
vn 0.0000 0.2588 -0.9659
vn 0.0000 0.9659 0.2588
vn -0.0072 -0.9685 -0.2490
vn 0.0280 -0.2587 0.9655
vn 0.0000 -0.1736 -0.9848
vn 0.0000 -0.9848 0.1736
vn 0.0000 0.9848 -0.1736
vn 0.0000 0.1736 0.9848
vn 0.9848 0.1736 0.0000
vn 0.1736 -0.9848 -0.0000
vn -0.9848 -0.1736 0.0000
vn -0.1736 0.9848 -0.0000
vn 0.1736 0.9848 -0.0000
vn -0.1736 -0.9848 0.0000
vn 0.9848 -0.1736 0.0000
vn -0.9848 0.1736 0.0000
vn 0.9659 -0.2588 0.0000
vn -0.9659 0.2588 0.0000
vn -0.2588 -0.9659 0.0000
vn 0.2588 0.9659 0.0000
vn -0.9659 -0.2588 0.0000
vn 0.9659 0.2588 0.0000
vn 0.2588 -0.9659 0.0000
vn -0.2588 0.9659 0.0000
vn 0.0000 -0.0991 0.9951
s off
f 1/1/1 4/2/1 2/3/1
f 7/4/2 6/5/2 8/6/2
f 2/7/3 8/8/3 6/9/3
f 3/10/4 8/6/4 4/2/4
f 5/11/5 2/12/5 6/5/5
f 5/13/6 3/10/6 1/14/6
f 9/15/1 12/16/1 10/17/1
f 15/18/2 14/19/2 16/20/2
f 10/21/3 16/22/3 14/23/3
f 11/24/4 16/20/4 12/16/4
f 13/25/5 10/17/5 14/26/5
f 13/27/6 11/24/6 9/28/6
f 17/29/1 20/30/1 18/31/1
f 24/32/2 21/33/2 22/34/2
f 18/35/7 24/36/7 22/37/7
f 19/38/8 24/32/8 20/39/8
f 21/40/9 18/35/9 22/37/9
f 21/41/10 19/38/10 17/42/10
f 25/43/1 27/44/1 94/45/1
f 96/46/2 95/47/2 29/48/2
f 95/49/11 27/50/11 29/51/11
f 26/52/12 29/53/12 27/44/12
f 28/54/9 94/55/9 95/49/9
f 28/56/10 26/52/10 25/57/10
f 33/58/13 36/59/13 32/60/13
f 37/61/1 34/62/1 36/63/1
f 36/64/14 30/65/14 32/66/14
f 31/67/2 32/60/2 30/68/2
f 33/69/15 35/70/15 37/71/15
f 35/70/16 30/68/16 34/62/16
f 38/72/1 41/73/1 39/74/1
f 44/75/2 43/76/2 45/77/2
f 39/78/14 45/79/14 43/80/14
f 40/81/16 45/77/16 41/73/16
f 42/82/13 39/74/13 43/83/13
f 42/84/15 40/81/15 38/85/15
f 46/86/1 49/87/1 47/88/1
f 52/89/2 51/90/2 53/91/2
f 47/92/3 53/93/3 51/94/3
f 48/95/4 53/91/4 49/87/4
f 50/96/5 47/88/5 51/97/5
f 50/98/6 48/95/6 46/99/6
f 54/100/1 57/101/1 55/102/1
f 60/103/2 59/104/2 61/105/2
f 55/106/3 61/107/3 59/108/3
f 56/109/4 61/105/4 57/101/4
f 58/110/5 55/102/5 59/111/5
f 58/112/6 56/109/6 54/113/6
f 65/114/5 68/115/5 64/116/5
f 69/117/17 66/118/17 68/119/17
f 68/120/18 62/121/18 64/122/18
f 63/123/19 64/116/19 62/124/19
f 65/125/20 67/126/20 69/127/20
f 66/118/4 63/123/4 62/124/4
f 74/128/21 72/129/21 70/130/21
f 75/131/5 70/132/5 71/133/5
f 71/134/22 77/135/22 75/136/22
f 70/132/23 73/137/23 71/133/23
f 72/129/4 77/138/4 73/137/4
f 76/139/24 75/140/24 77/138/24
f 78/141/25 81/142/25 79/143/25
f 84/144/26 83/145/26 85/146/26
f 79/147/27 85/148/27 83/149/27
f 81/142/4 84/144/4 85/146/4
f 82/150/5 79/143/5 83/151/5
f 82/152/28 80/153/28 78/154/28
f 86/155/29 89/156/29 87/157/29
f 93/158/30 90/159/30 91/160/30
f 87/161/31 93/162/31 91/163/31
f 89/156/5 92/164/5 93/165/5
f 90/159/4 87/157/4 91/160/4
f 90/159/32 88/166/32 86/155/32
f 1/1/1 3/10/1 4/2/1
f 7/4/2 5/11/2 6/5/2
f 2/7/3 4/167/3 8/8/3
f 3/10/4 7/4/4 8/6/4
f 5/11/5 1/168/5 2/12/5
f 5/13/6 7/4/6 3/10/6
f 9/15/1 11/24/1 12/16/1
f 15/18/2 13/169/2 14/19/2
f 10/21/3 12/170/3 16/22/3
f 11/24/4 15/18/4 16/20/4
f 13/25/5 9/15/5 10/17/5
f 13/27/6 15/18/6 11/24/6
f 17/29/1 19/171/1 20/30/1
f 24/32/2 23/172/2 21/33/2
f 18/35/7 20/173/7 24/36/7
f 19/38/8 23/172/8 24/32/8
f 21/40/9 17/174/9 18/35/9
f 21/41/10 23/172/10 19/38/10
f 25/43/1 26/52/1 27/44/1
f 96/46/2 28/175/2 95/47/2
f 95/49/7 94/55/7 27/50/7
f 26/52/33 96/176/33 29/53/33
f 28/54/9 25/177/9 94/55/9
f 28/56/10 96/176/10 26/52/10
f 33/58/13 37/178/13 36/59/13
f 37/61/1 35/70/1 34/62/1
f 36/64/14 34/179/14 30/65/14
f 31/67/2 33/58/2 32/60/2
f 33/69/15 31/67/15 35/70/15
f 35/70/16 31/67/16 30/68/16
f 38/72/1 40/81/1 41/73/1
f 44/75/2 42/180/2 43/76/2
f 39/78/14 41/181/14 45/79/14
f 40/81/16 44/75/16 45/77/16
f 42/82/13 38/72/13 39/74/13
f 42/84/15 44/75/15 40/81/15
f 46/86/1 48/95/1 49/87/1
f 52/89/2 50/182/2 51/90/2
f 47/92/3 49/183/3 53/93/3
f 48/95/4 52/89/4 53/91/4
f 50/96/5 46/86/5 47/88/5
f 50/98/6 52/89/6 48/95/6
f 54/100/1 56/109/1 57/101/1
f 60/103/2 58/184/2 59/104/2
f 55/106/3 57/185/3 61/107/3
f 56/109/4 60/103/4 61/105/4
f 58/110/5 54/100/5 55/102/5
f 58/112/6 60/103/6 56/109/6
f 65/114/5 69/186/5 68/115/5
f 69/117/17 67/126/17 66/118/17
f 68/120/18 66/187/18 62/121/18
f 63/123/19 65/114/19 64/116/19
f 65/125/20 63/123/20 67/126/20
f 66/118/4 67/126/4 63/123/4
f 74/128/21 76/139/21 72/129/21
f 75/131/5 74/188/5 70/132/5
f 71/134/22 73/189/22 77/135/22
f 70/132/23 72/129/23 73/137/23
f 72/129/4 76/139/4 77/138/4
f 76/139/24 74/190/24 75/140/24
f 78/141/25 80/153/25 81/142/25
f 84/144/26 82/191/26 83/145/26
f 79/147/27 81/192/27 85/148/27
f 81/142/4 80/153/4 84/144/4
f 82/150/5 78/141/5 79/143/5
f 82/152/28 84/144/28 80/153/28
f 86/155/29 88/193/29 89/156/29
f 93/158/30 92/194/30 90/159/30
f 87/161/31 89/195/31 93/162/31
f 89/156/5 88/193/5 92/164/5
f 90/159/4 86/155/4 87/157/4
f 90/159/32 92/196/32 88/166/32
