# Blender v2.79 (sub 0) OBJ File: 'sword.blend'
# www.blender.org
o Cube
v 0.037500 0.004478 -0.208540
v 0.037500 0.004478 0.216460
v -0.037500 0.004478 0.216460
v -0.037500 0.004478 -0.208540
v 0.037500 0.029478 -0.208540
v 0.037500 0.029478 0.216460
v -0.037500 0.029478 0.216460
v -0.037500 0.029478 -0.208540
v 0.000000 0.016978 -0.358540
v 0.012500 0.004477 0.266460
v -0.012500 0.004477 0.266460
v 0.012500 0.029477 0.266460
v -0.012500 0.029477 0.266460
v -0.087500 0.004477 0.216460
v -0.087500 0.029477 0.216460
v -0.087500 0.004477 0.241460
v -0.087500 0.029477 0.241460
v 0.050000 0.016978 -0.208540
v 0.050000 0.016978 0.216460
v -0.050000 0.016977 0.216460
v -0.050000 0.016977 -0.208540
v 0.000000 0.029478 -0.283540
v 0.000000 0.004478 -0.283540
v -0.000000 -0.008022 0.216460
v -0.000000 0.004477 0.291460
v -0.000000 0.041978 0.216460
v -0.000000 0.029477 0.291460
v -0.112500 0.004477 0.266460
v -0.112500 0.029477 0.266460
v 0.087500 0.004478 0.216460
v 0.087500 0.029478 0.216460
v 0.087500 0.004477 0.241460
v 0.087500 0.029477 0.241460
v 0.112500 0.004478 0.266460
v 0.112500 0.029478 0.266460
v 0.012500 0.004477 0.361460
v -0.012500 0.004477 0.361460
v 0.012500 0.029477 0.361460
v -0.012500 0.029477 0.361460
v -0.017500 -0.000522 0.368960
v 0.017500 -0.000522 0.368960
v 0.017500 0.034478 0.368960
v -0.017500 0.034478 0.368960
v -0.017500 -0.000522 0.388960
v 0.017500 -0.000522 0.388960
v 0.017500 0.034478 0.388960
v -0.017500 0.034478 0.388960
v -0.012500 0.004478 0.396460
v 0.012500 0.004478 0.396460
v 0.012500 0.029478 0.396460
v -0.012500 0.029478 0.396460
vt 0.031250 0.000000
vt 0.000000 0.750000
vt 0.000000 0.000000
vt 0.218750 0.750000
vt 0.187500 0.000000
vt 0.218750 0.000000
vt 0.218750 1.000000
vt 0.187500 0.750000
vt 0.156250 1.000000
vt 0.156250 0.750000
vt 0.343750 0.750000
vt 0.375000 0.750000
vt 0.343750 1.000000
vt 0.031250 1.000000
vt 0.031250 0.750000
vt 0.500000 0.812500
vt 0.437500 0.906250
vt 0.375000 0.750000
vt 0.281250 0.875000
vt 0.562500 0.281250
vt 0.500000 0.375000
vt 0.500000 0.281250
vt 0.562500 0.125000
vt 0.500000 0.125000
vt 0.562500 0.812500
vt 0.625000 0.906250
vt 0.562500 0.906250
vt 0.500000 0.906250
vt 0.375000 0.000000
vt 0.281250 1.000000
vt 0.156250 0.000000
vt 0.093750 1.000000
vt 0.093750 0.875000
vt 0.531250 0.500000
vt 0.437500 0.437500
vt 0.625000 0.437500
vt 0.531250 0.500000
vt 0.437500 0.437500
vt 0.625000 0.437500
vt 0.625000 0.687500
vt 0.437500 0.687500
vt 0.437500 0.687500
vt 0.625000 0.687500
vt 0.437500 0.250000
vt 0.500000 1.000000
vt 0.625000 0.250000
vt 0.562500 0.375000
vt 0.562500 0.906250
vt 0.500000 1.000000
vt 0.500000 0.906250
vt 0.625000 0.906250
vt 0.562500 0.812500
vt 0.687500 0.750000
vt 0.562500 0.125000
vt 0.500000 0.281250
vt 0.500000 0.125000
vt 0.500000 0.812500
vt 0.437500 0.906250
vt 0.375000 0.750000
vt 0.500000 0.375000
vt 0.437500 0.250000
vt 0.625000 0.250000
vt 0.562500 0.375000
vt 0.562500 0.281250
vt 0.812500 1.000000
vt 0.812500 0.781250
vt 0.843750 0.937500
vt 0.875000 0.781250
vt 0.875000 1.000000
vt 0.750000 1.000000
vt 0.937500 0.781250
vt 0.937500 1.000000
vt 0.343750 0.000000
vt 1.000000 1.000000
vt 0.968750 0.937500
vt 1.000000 0.781250
vt 0.750000 0.750000
vt 0.812500 0.750000
vt 0.937500 0.750000
vt 1.000000 0.750000
vt 0.875000 0.750000
vt 0.812500 0.718750
vt 0.875000 0.718750
vt 0.937500 0.718750
vt 1.000000 0.718750
vt 0.812500 0.687500
vt 0.875000 0.687500
vt 0.937500 0.687500
vt 1.000000 0.687500
vt 0.750000 0.718750
vt 0.812500 0.656250
vt 0.687500 0.750000
vt 0.562500 1.000000
vt 0.562500 1.000000
vt 0.750000 0.781250
vt 0.750000 0.687500
vt 0.875000 0.656250
vn 0.7071 -0.7071 0.0000
vn -0.7071 0.7071 -0.0000
vn -0.6883 0.6882 -0.2294
vn -0.6882 -0.6883 -0.2294
vn 0.6882 0.6882 -0.2294
vn 0.6882 -0.6882 -0.2294
vn -0.0000 1.0000 0.0000
vn 0.7071 0.0000 0.7071
vn -0.3162 0.0000 0.9487
vn 0.0000 -1.0000 -0.0000
vn 0.0000 -0.0000 -1.0000
vn 0.7071 0.7071 0.0000
vn 0.3123 0.9370 -0.1562
vn -0.7071 -0.7071 -0.0000
vn -0.3123 0.9370 -0.1562
vn 0.3123 -0.9370 -0.1562
vn -0.3123 -0.9370 -0.1562
vn -0.3123 0.9370 0.1562
vn 0.3123 0.9370 0.1562
vn -0.3123 -0.9370 0.1562
vn 0.3123 -0.9370 0.1562
vn -0.8944 -0.0000 -0.4472
vn 0.8944 0.0000 -0.4472
vn 0.3162 -0.0000 0.9487
vn -0.7071 -0.0000 0.7071
vn -1.0000 -0.0000 0.0000
vn 1.0000 0.0000 0.0000
vn -0.8321 -0.0000 -0.5547
vn -0.0000 -0.8321 -0.5547
vn 0.0000 0.8320 -0.5547
vn 0.8321 0.0000 -0.5547
vn -0.0000 0.8321 0.5547
vn 0.8321 0.0000 0.5547
vn 0.0000 -0.8321 0.5547
vn -0.8321 -0.0000 0.5547
vn -0.0000 0.0000 1.0000
vn 0.8320 0.0000 -0.5547
s off
f 2/1/1 18/2/1 19/3/1
f 8/4/2 20/5/2 7/6/2
f 8/4/3 9/7/3 21/8/3
f 9/9/4 4/10/4 21/8/4
f 5/11/5 18/12/5 9/13/5
f 9/14/6 18/2/6 1/15/6
f 7/16/7 17/17/7 13/18/7
f 22/19/7 8/4/7 5/11/7
f 17/20/8 28/21/8 16/22/8
f 13/23/9 16/22/9 11/24/9
f 3/25/10 16/26/10 14/27/10
f 7/16/11 14/27/11 15/28/11
f 5/11/12 19/29/12 18/12/12
f 9/30/13 22/19/13 5/11/13
f 3/31/14 21/8/14 4/10/14
f 22/19/15 9/30/15 8/4/15
f 9/32/16 1/15/16 23/33/16
f 23/33/17 4/10/17 9/32/17
f 26/34/11 6/35/11 7/36/11
f 24/37/11 3/38/11 2/39/11
f 23/33/10 1/15/10 4/10/10
f 27/40/18 26/34/18 7/36/18
f 26/34/19 27/41/19 6/35/19
f 25/42/20 3/38/20 24/37/20
f 24/37/21 2/39/21 25/43/21
f 14/44/10 16/22/10 28/21/10
f 14/27/22 29/45/22 15/28/22
f 17/20/7 15/46/7 29/47/7
f 31/48/23 34/49/23 30/50/23
f 33/51/7 6/52/7 12/53/7
f 10/54/24 33/55/24 12/56/24
f 31/48/11 2/57/11 6/52/11
f 2/57/10 32/58/10 10/59/10
f 33/55/7 35/60/7 31/61/7
f 30/62/10 34/63/10 32/64/10
f 34/63/25 33/55/25 32/64/25
f 13/65/7 39/66/7 27/67/7
f 38/68/7 12/69/7 27/67/7
f 11/70/26 39/66/26 13/65/26
f 12/69/27 36/71/27 10/72/27
f 5/11/7 7/6/7 6/73/7
f 1/15/10 3/31/10 4/10/10
f 39/66/7 38/68/7 27/67/7
f 11/74/10 25/75/10 37/76/10
f 25/75/10 10/72/10 36/71/10
f 37/76/10 25/75/10 36/71/10
f 39/66/28 40/77/28 43/78/28
f 37/76/29 41/79/29 40/80/29
f 38/68/30 43/78/30 42/81/30
f 38/68/31 41/79/31 36/71/31
f 40/77/26 47/82/26 43/78/26
f 42/81/7 47/82/7 46/83/7
f 42/81/27 45/84/27 41/79/27
f 40/80/10 45/84/10 44/85/10
f 46/83/32 51/86/32 50/87/32
f 46/83/33 49/88/33 45/84/33
f 44/85/34 49/88/34 48/89/34
f 44/90/35 51/86/35 47/82/35
f 48/91/36 50/87/36 51/86/36
f 2/1/1 1/15/1 18/2/1
f 8/4/2 21/8/2 20/5/2
f 7/16/7 15/28/7 17/17/7
f 17/20/8 29/47/8 28/21/8
f 13/23/9 17/20/9 16/22/9
f 3/25/10 11/92/10 16/26/10
f 7/16/11 3/25/11 14/27/11
f 5/11/12 6/73/12 19/29/12
f 3/31/14 20/5/14 21/8/14
f 14/27/22 28/93/22 29/45/22
f 31/48/23 35/94/23 34/49/23
f 33/51/7 31/48/7 6/52/7
f 10/54/24 32/64/24 33/55/24
f 31/48/11 30/50/11 2/57/11
f 2/57/10 30/50/10 32/58/10
f 34/63/25 35/60/25 33/55/25
f 11/70/26 37/95/26 39/66/26
f 12/69/27 38/68/27 36/71/27
f 5/11/7 8/4/7 7/6/7
f 1/15/10 2/1/10 3/31/10
f 39/66/28 37/95/28 40/77/28
f 37/76/29 36/71/29 41/79/29
f 38/68/30 39/66/30 43/78/30
f 38/68/37 42/81/37 41/79/37
f 40/77/26 44/90/26 47/82/26
f 42/81/7 43/78/7 47/82/7
f 42/81/27 46/83/27 45/84/27
f 40/80/10 41/79/10 45/84/10
f 46/83/32 47/82/32 51/86/32
f 46/83/33 50/87/33 49/88/33
f 44/85/34 45/84/34 49/88/34
f 44/90/35 48/96/35 51/86/35
f 48/91/36 49/97/36 50/87/36
