# Blender v2.79 (sub 0) OBJ File: 'healingFlask.blend'
# www.blender.org
o Sphere_Sphere.001
v -0.000000 0.172996 -0.035076
v -0.000000 0.115937 -0.108533
v -0.000000 0.045408 -0.108533
v -0.000000 -0.011652 -0.067077
v 0.027424 0.172996 -0.021870
v 0.084855 0.115937 -0.067669
v 0.084855 0.045408 -0.067669
v 0.052443 -0.011652 -0.041822
v 0.034197 0.172996 0.007805
v 0.105812 0.115937 0.024151
v 0.105812 0.045408 0.024151
v 0.065395 -0.011652 0.014926
v 0.015219 0.172996 0.031603
v 0.047091 0.115937 0.097785
v 0.047091 0.045408 0.097785
v 0.029104 -0.011652 0.060435
v -0.015219 0.172996 0.031603
v -0.047091 0.115937 0.097785
v -0.047091 0.045408 0.097785
v -0.029104 -0.011652 0.060435
v -0.034197 0.172996 0.007805
v -0.105812 0.115937 0.024151
v -0.105812 0.045408 0.024151
v -0.065395 -0.011652 0.014926
v -0.027424 0.172996 -0.021870
v -0.084855 0.115937 -0.067669
v -0.084855 0.045408 -0.067669
v -0.052443 -0.011652 -0.041822
v -0.000000 0.283032 -0.035076
v 0.027424 0.283032 -0.021870
v 0.034197 0.283032 0.007805
v 0.015219 0.283032 0.031603
v -0.015219 0.283032 0.031603
v -0.034197 0.283032 0.007805
v -0.027424 0.283032 -0.021870
v -0.000000 0.293806 -0.047129
v 0.036847 0.293806 -0.029385
v 0.045948 0.293806 0.010487
v 0.020449 0.293806 0.042462
v -0.020449 0.293806 0.042462
v -0.045948 0.293806 0.010487
v -0.036847 0.293806 -0.029385
v -0.000000 0.308191 -0.047129
v 0.036847 0.308191 -0.029385
v 0.045948 0.308191 0.010487
v 0.020449 0.308191 0.042462
v -0.020449 0.308191 0.042462
v -0.045948 0.308191 0.010487
v -0.036847 0.308191 -0.029385
v -0.000000 0.331256 0.000000
vt 0.593750 0.375000
vt 0.437500 0.250000
vt 0.562500 0.250000
vt 0.531250 0.656250
vt 0.406250 0.500000
vt 0.593750 0.500000
vt 0.406250 0.375000
vt 0.250000 0.250000
vt 0.375000 0.250000
vt 0.281250 0.656250
vt 0.218750 0.500000
vt 0.218750 0.375000
vt 0.750000 0.250000
vt 0.593750 0.375000
vt 0.625000 0.250000
vt 0.781250 0.500000
vt 0.656250 0.656250
vt 0.593750 0.500000
vt 0.781250 0.375000
vt 0.437500 0.250000
vt 0.562500 0.250000
vt 0.531250 0.656250
vt 0.406250 0.500000
vt 0.406250 0.375000
vt 0.250000 0.250000
vt 0.375000 0.250000
vt 0.343750 0.656250
vt 0.218750 0.500000
vt 0.218750 0.375000
vt 0.062500 0.250000
vt 0.187500 0.250000
vt 0.093750 0.656250
vt 0.031250 0.500000
vt 0.125000 0.000000
vt 0.250000 0.156250
vt 0.031250 0.375000
vt 0.781250 0.375000
vt 0.625000 0.250000
vt 0.750000 0.250000
vt 0.781250 0.500000
vt 0.656250 0.656250
vt 0.343750 0.656250
vt 0.281250 0.843750
vt 0.281250 0.656250
vt 0.218750 0.843750
vt 0.218750 0.656250
vt 0.531250 0.656250
vt 0.468750 0.843750
vt 0.468750 0.656250
vt 0.156250 0.843750
vt 0.156250 0.656250
vt 0.093750 0.843750
vt 0.406250 0.843750
vt 0.406250 0.656250
vt 0.343750 0.843750
vt 0.093750 0.875000
vt 0.218750 0.875000
vt 0.406250 0.875000
vt 0.343750 0.875000
vt 0.531250 0.875000
vt 0.468750 0.875000
vt 0.156250 0.875000
vt 0.281250 0.875000
vt 0.468750 0.906250
vt 0.156250 0.906250
vt 0.281250 0.906250
vt 0.406250 0.906250
vt 0.093750 0.906250
vt 0.218750 0.906250
vt 0.343750 0.906250
vt 0.531250 0.906250
vt 0.500000 1.000000
vt 0.437500 1.000000
vt 0.375000 1.000000
vt 0.312500 1.000000
vt 0.250000 1.000000
vt 0.187500 1.000000
vt 0.125000 1.000000
vt 0.468750 0.656250
vt 0.343750 0.656250
vt 0.718750 0.656250
vt 0.468750 0.656250
vt 0.281250 0.656250
vt 0.000000 0.156250
vt 0.031250 0.062500
vt 0.218750 0.062500
vt 0.718750 0.656250
vt 0.531250 0.843750
vn 0.3630 -0.5477 -0.7538
vn 0.2833 0.7574 -0.5883
vn 0.4339 -0.0000 -0.9010
vn 0.8157 -0.5477 -0.1862
vn 0.6366 0.7574 -0.1453
vn 0.9749 -0.0000 -0.2225
vn 0.6541 -0.5477 0.5217
vn 0.5105 0.7574 0.4071
vn 0.7818 -0.0000 0.6235
vn 0.0000 -0.5477 0.8367
vn -0.0000 0.7574 0.6530
vn 0.0000 -0.0000 1.0000
vn -0.6541 -0.5477 0.5217
vn -0.5105 0.7574 0.4071
vn -0.7818 -0.0000 0.6235
vn -0.8157 -0.5477 -0.1862
vn -0.6366 0.7574 -0.1453
vn 0.0000 -1.0000 0.0000
vn -0.9749 -0.0000 -0.2225
vn -0.3630 -0.5477 -0.7538
vn -0.2833 0.7574 -0.5883
vn -0.4339 -0.0000 -0.9010
vn -0.6866 -0.7099 -0.1567
vn 0.0000 -0.7099 0.7043
vn 0.6866 -0.7099 -0.1567
vn -0.3056 -0.7099 -0.6346
vn -0.5506 -0.7099 0.4391
vn 0.5506 -0.7099 0.4391
vn 0.3056 -0.7099 -0.6346
vn -0.2071 0.8787 -0.4300
vn 0.2071 0.8787 -0.4300
vn 0.4653 0.8787 -0.1062
vn 0.3732 0.8787 0.2976
vn 0.0000 0.8787 0.4773
vn -0.3732 0.8787 0.2976
vn -0.4653 0.8787 -0.1062
s off
f 3/1/1 8/2/1 4/3/1
f 1/4/2 6/5/2 2/6/2
f 2/6/3 7/7/3 3/1/3
f 7/7/4 12/8/4 8/9/4
f 6/5/5 9/10/5 10/11/5
f 6/5/6 11/12/6 7/7/6
f 12/13/7 15/14/7 16/15/7
f 10/16/8 13/17/8 14/18/8
f 10/16/9 15/14/9 11/19/9
f 15/14/10 20/20/10 16/21/10
f 13/22/11 18/23/11 14/18/11
f 14/18/12 19/24/12 15/14/12
f 19/24/13 24/25/13 20/26/13
f 17/27/14 22/28/14 18/23/14
f 18/23/15 23/29/15 19/24/15
f 23/29/16 28/30/16 24/31/16
f 22/28/17 25/32/17 26/33/17
f 12/34/18 20/35/18 28/30/18
f 22/28/19 27/36/19 23/29/19
f 27/37/20 4/38/20 28/39/20
f 26/40/21 1/41/21 2/6/21
f 26/40/22 3/1/22 27/37/22
f 9/42/9 32/43/9 13/44/9
f 13/44/12 33/45/12 17/46/12
f 25/47/22 29/48/22 1/49/22
f 17/46/15 34/50/15 21/51/15
f 21/51/19 35/52/19 25/32/19
f 1/49/3 30/53/3 5/54/3
f 5/54/6 31/55/6 9/42/6
f 34/50/23 42/56/23 35/52/23
f 32/43/24 40/57/24 33/45/24
f 31/55/25 37/58/25 38/59/25
f 29/48/26 42/60/26 36/61/26
f 33/45/27 41/62/27 34/50/27
f 31/55/28 39/63/28 32/43/28
f 29/48/29 37/58/29 30/53/29
f 42/60/22 43/64/22 36/61/22
f 40/57/15 48/65/15 41/62/15
f 38/59/9 46/66/9 39/63/9
f 36/61/3 44/67/3 37/58/3
f 41/62/19 49/68/19 42/56/19
f 39/63/12 47/69/12 40/57/12
f 37/58/6 45/70/6 38/59/6
f 49/71/30 50/72/30 43/64/30
f 44/67/31 43/64/31 50/73/31
f 45/70/32 44/67/32 50/74/32
f 46/66/33 45/70/33 50/75/33
f 46/66/34 50/76/34 47/69/34
f 47/69/35 50/77/35 48/65/35
f 48/65/36 50/78/36 49/68/36
f 3/1/1 7/7/1 8/2/1
f 1/4/2 5/79/2 6/5/2
f 2/6/3 6/5/3 7/7/3
f 7/7/4 11/12/4 12/8/4
f 6/5/5 5/80/5 9/10/5
f 6/5/6 10/11/6 11/12/6
f 12/13/7 11/19/7 15/14/7
f 10/16/8 9/81/8 13/17/8
f 10/16/9 14/18/9 15/14/9
f 15/14/10 19/24/10 20/20/10
f 13/22/11 17/82/11 18/23/11
f 14/18/12 18/23/12 19/24/12
f 19/24/13 23/29/13 24/25/13
f 17/27/14 21/83/14 22/28/14
f 18/23/15 22/28/15 23/29/15
f 23/29/16 27/36/16 28/30/16
f 22/28/17 21/51/17 25/32/17
f 4/84/18 8/85/18 12/34/18
f 12/34/18 16/86/18 20/35/18
f 20/35/18 24/31/18 28/30/18
f 28/30/18 4/84/18 12/34/18
f 22/28/19 26/33/19 27/36/19
f 27/37/20 3/1/20 4/38/20
f 26/40/21 25/87/21 1/41/21
f 26/40/22 2/6/22 3/1/22
f 9/42/9 31/55/9 32/43/9
f 13/44/12 32/43/12 33/45/12
f 25/47/22 35/88/22 29/48/22
f 17/46/15 33/45/15 34/50/15
f 21/51/19 34/50/19 35/52/19
f 1/49/3 29/48/3 30/53/3
f 5/54/6 30/53/6 31/55/6
f 34/50/23 41/62/23 42/56/23
f 32/43/24 39/63/24 40/57/24
f 31/55/25 30/53/25 37/58/25
f 29/48/26 35/88/26 42/60/26
f 33/45/27 40/57/27 41/62/27
f 31/55/28 38/59/28 39/63/28
f 29/48/29 36/61/29 37/58/29
f 42/60/22 49/71/22 43/64/22
f 40/57/15 47/69/15 48/65/15
f 38/59/9 45/70/9 46/66/9
f 36/61/3 43/64/3 44/67/3
f 41/62/19 48/65/19 49/68/19
f 39/63/12 46/66/12 47/69/12
f 37/58/6 44/67/6 45/70/6
